<?xml version="1.0" standalone="no"?>
<!DOCTYPE svg PUBLIC "-//W3C//DTD SVG 20010904//EN"
 "http://www.w3.org/TR/2001/REC-SVG-20010904/DTD/svg10.dtd">
<svg version="1.0" xmlns="http://www.w3.org/2000/svg"
 width="483.000000pt" height="403.000000pt" viewBox="0 0 483.000000 403.000000"
 preserveAspectRatio="xMidYMid meet">

<g transform="translate(0.000000,403.000000) scale(0.100000,-0.100000)"
fill="#000000" stroke="none">
<path d="M2477 3994 c-3 -3 -30 -10 -59 -14 -47 -7 -49 -8 -15 -9 26 -1 37 -5
34 -13 -5 -15 -75 -12 -94 4 -16 13 -96 3 -184 -23 -85 -24 -215 -91 -331
-171 -15 -10 -52 -27 -83 -39 -31 -12 -80 -40 -108 -63 -74 -58 -115 -88 -167
-119 -55 -32 -130 -101 -130 -119 0 -8 -14 -29 -31 -48 -28 -33 -30 -33 -25
-10 4 20 -6 13 -49 -35 -30 -33 -63 -78 -73 -100 -11 -22 -34 -71 -52 -109
-17 -38 -47 -89 -65 -115 -32 -45 -48 -86 -114 -296 -37 -117 -76 -210 -102
-244 -11 -14 -19 -40 -19 -63 0 -52 -85 -232 -141 -298 -24 -29 -62 -65 -84
-81 -36 -26 -201 -180 -387 -361 -38 -38 -73 -68 -79 -68 -5 0 -28 -37 -51
-82 l-42 -83 -2 -120 c-2 -110 8 -202 37 -342 9 -46 16 -56 65 -93 31 -23 100
-62 155 -86 92 -41 276 -134 489 -247 74 -40 146 -65 280 -98 19 -5 84 -9 143
-9 119 0 148 -9 191 -60 33 -40 48 -96 39 -155 -6 -47 -6 -48 19 -42 15 4 32
1 44 -8 10 -8 26 -15 35 -15 8 0 28 -13 44 -30 16 -16 31 -28 33 -25 3 3 17
-2 30 -11 18 -12 40 -15 81 -12 63 6 97 -5 104 -33 5 -20 27 -27 27 -8 0 6 16
1 35 -11 19 -12 41 -19 48 -17 6 3 3 6 -8 6 -16 1 -17 3 -6 10 10 6 19 3 30
-10 14 -18 27 -20 131 -17 134 3 138 8 97 91 -14 26 -21 50 -16 53 5 3 9 0 9
-5 0 -6 13 -11 30 -11 23 0 31 -5 36 -25 3 -14 10 -23 15 -20 4 3 18 -9 31
-26 39 -53 62 -59 220 -59 175 0 221 12 226 59 3 27 7 31 32 31 87 0 356 -35
504 -66 91 -19 121 -18 181 5 27 11 65 25 83 32 21 8 40 25 52 48 27 54 58 78
146 114 43 18 92 41 107 51 15 10 47 22 71 27 24 4 59 19 79 32 59 40 245 52
302 19 17 -11 49 -22 71 -26 21 -4 66 -17 99 -28 62 -21 143 -20 169 2 7 5 33
51 59 102 25 51 71 124 101 162 l56 70 0 87 c0 92 -11 130 -55 195 -14 20 -25
46 -25 58 0 27 -32 87 -80 151 -47 63 -77 127 -133 290 -61 175 -93 286 -107
370 -18 110 -47 261 -73 375 -26 115 -26 118 -12 570 l7 255 -40 115 c-106
308 -138 384 -174 416 -33 30 -112 80 -172 111 -28 14 -60 34 -71 45 -18 18
-182 98 -332 162 -35 15 -87 31 -117 36 -30 5 -84 18 -121 29 -37 12 -79 21
-94 21 -14 0 -55 9 -91 20 -42 13 -121 23 -225 30 -88 6 -204 15 -258 20 -112
11 -171 13 -180 4z m48 -44 c-3 -5 -16 -10 -28 -10 -18 0 -19 2 -7 10 20 13
43 13 35 0z m72 -6 c-3 -3 -12 -4 -19 -1 -8 3 -5 6 6 6 11 1 17 -2 13 -5z
m115 -16 c-9 -9 -15 -9 -24 0 -9 9 -7 12 12 12 19 0 21 -3 12 -12z m83 2 c3
-6 -1 -13 -10 -16 -19 -8 -30 0 -20 15 8 14 22 14 30 1z m253 -49 c3 -8 -1
-12 -9 -9 -7 2 -15 10 -17 17 -3 8 1 12 9 9 7 -2 15 -10 17 -17z m-258 -41 c0
-5 -5 -10 -11 -10 -5 0 -7 5 -4 10 3 6 8 10 11 10 2 0 4 -4 4 -10z m66 -325
c129 -6 167 -9 214 -19 14 -3 52 -10 85 -15 33 -6 77 -15 99 -20 21 -5 44 -7
52 -4 7 3 28 -3 46 -12 18 -9 65 -20 103 -25 89 -11 232 -53 312 -90 73 -33
119 -80 180 -182 59 -100 68 -135 55 -232 -6 -48 -6 -89 -1 -105 15 -43 27
-121 19 -121 -4 0 -13 7 -20 15 -7 8 -15 13 -19 10 -4 -2 -15 4 -23 15 -32 37
-208 73 -287 58 -25 -4 -52 -6 -59 -3 -23 9 -49 -13 -66 -55 -9 -23 -20 -38
-25 -35 -13 8 -54 -53 -47 -70 6 -17 56 -21 56 -5 0 6 19 11 43 11 39 1 40 2
12 9 -25 6 -26 8 -7 9 13 0 20 6 17 11 -4 6 6 10 22 9 22 0 24 -2 10 -8 -11
-4 22 -7 72 -6 56 0 94 -4 99 -11 4 -6 27 -14 52 -17 63 -9 153 -40 149 -52
-2 -5 -8 -9 -14 -8 -143 30 -397 43 -463 24 -29 -9 -36 -7 -54 15 -28 32 -45
31 -24 -1 16 -25 14 -45 -5 -45 -5 0 -9 9 -9 19 0 24 -18 31 -100 38 -54 5
-70 11 -96 34 -43 41 -174 105 -256 125 -16 3 -28 10 -28 15 0 12 33 4 129
-28 l75 -25 17 24 c16 21 16 25 2 40 -16 18 -10 38 13 38 8 0 14 7 14 16 0 8
-4 13 -8 10 -5 -3 -21 2 -36 10 -16 7 -33 14 -39 14 -6 0 -20 9 -31 19 -19 17
-55 27 -81 21 -5 -1 -45 -3 -87 -4 -54 -1 -78 3 -78 11 0 8 -9 7 -30 -3 -16
-9 -34 -12 -40 -9 -6 4 -26 1 -44 -5 -27 -8 -39 -8 -55 1 -16 11 -24 11 -44 0
-19 -10 -29 -10 -47 -1 -17 9 -28 9 -50 0 -16 -7 -34 -9 -40 -5 -7 4 -10 0 -8
-11 3 -16 -5 -19 -49 -22 -40 -2 -53 -7 -53 -19 0 -26 -23 -93 -32 -93 -13 0
-9 53 7 84 l15 29 -47 -7 c-42 -5 -89 -16 -261 -56 -23 -5 -72 -10 -107 -10
l-65 0 24 39 c14 21 32 55 40 75 8 20 20 36 25 36 6 0 11 8 11 18 0 35 71 233
108 299 65 117 174 191 312 211 185 28 298 40 311 35 3 -1 64 -5 135 -8z
m-1436 -95 c0 -5 -5 -10 -11 -10 -5 0 -7 5 -4 10 3 6 8 10 11 10 2 0 4 -4 4
-10z m1320 -635 c147 -29 235 -55 337 -98 99 -42 141 -71 149 -102 5 -22 -21
-125 -32 -125 -3 0 -21 12 -39 26 -46 35 -70 29 -70 -18 0 -20 -3 -40 -7 -44
-5 -4 -8 -22 -8 -41 0 -28 3 -33 24 -33 24 0 66 44 66 69 0 6 4 11 9 11 10 0
2 -48 -10 -56 -15 -9 -10 -44 6 -44 18 0 56 73 81 155 24 82 29 86 88 74 62
-11 73 -21 79 -67 18 -119 44 -212 61 -212 10 0 13 26 12 115 -1 138 7 152 95
160 l54 5 -53 -19 c-30 -10 -58 -23 -63 -28 -17 -17 -22 -120 -10 -180 l13
-58 49 -3 c66 -4 85 8 93 59 l7 41 62 -7 c34 -3 80 -8 102 -11 21 -2 49 -13
60 -24 24 -22 45 -26 45 -9 0 7 -5 41 -12 78 -16 88 -40 109 -156 138 -138 34
-43 31 172 -6 32 -6 60 -12 62 -13 1 -2 5 -91 9 -198 3 -107 8 -203 11 -212 5
-17 6 -17 23 0 24 23 41 56 41 81 0 12 14 34 30 49 17 16 30 37 30 46 0 17 5
20 51 30 22 5 28 13 33 48 6 34 3 45 -14 62 l-20 20 0 -22 c0 -13 -6 -22 -16
-22 -20 0 -15 29 8 44 23 14 58 -26 58 -65 0 -66 -67 -290 -95 -318 -8 -9 -35
-21 -58 -26 l-42 -11 -6 -114 c-7 -122 -17 -191 -49 -341 -41 -191 -50 -244
-65 -362 -8 -67 -17 -198 -20 -292 -10 -295 -53 -419 -186 -543 -60 -54 -89
-89 -89 -103 0 -23 -109 -133 -135 -137 -38 -5 -47 -8 -57 -23 -7 -11 -11 -11
-15 -1 -2 6 -12 12 -22 12 -9 0 -26 8 -37 18 -11 10 -25 17 -32 14 -7 -2 -16
4 -18 15 -3 10 -18 24 -34 31 -24 11 -34 11 -60 -3 -18 -9 -38 -14 -46 -11 -7
3 -27 1 -42 -5 -26 -9 -33 -7 -63 20 -18 17 -36 26 -39 21 -3 -5 -20 22 -38
59 -17 38 -38 71 -47 75 -22 8 -19 35 3 29 14 -3 18 3 20 28 3 41 9 49 35 50
12 0 16 3 10 6 -7 2 -13 16 -13 29 0 25 39 50 69 45 8 -2 20 4 26 12 6 8 19
16 30 19 11 2 19 11 18 19 -3 18 49 39 97 39 41 0 31 11 -29 34 -74 28 -139
38 -299 42 -83 2 -160 8 -171 13 -11 6 -31 7 -47 2 -25 -7 -52 -7 -102 -2 -7
0 -17 11 -22 24 -5 12 -9 16 -9 10 -1 -20 -41 19 -41 39 0 11 8 18 20 18 13 0
20 -7 20 -20 0 -23 15 -27 24 -5 3 8 15 15 26 15 11 0 20 5 20 10 0 6 -4 10
-9 10 -16 0 -21 44 -6 60 13 13 15 11 16 -10 0 -24 1 -24 9 -4 5 12 22 26 39
32 17 6 31 16 31 23 0 6 7 17 17 24 21 15 8 38 -18 30 -23 -8 -24 1 -4 21 16
17 21 69 5 59 -6 -4 -8 10 -6 37 3 46 -8 70 -28 62 -24 -9 -28 39 -6 58 25 20
54 13 75 -18 8 -13 22 -24 29 -24 8 0 16 -4 18 -9 2 -5 21 -18 42 -30 29 -15
43 -17 52 -10 8 6 23 7 36 3 13 -4 30 -8 38 -9 33 -4 60 -17 60 -31 0 -17 27
-19 32 -3 3 9 10 9 27 -1 19 -10 25 -10 31 0 10 16 136 5 166 -14 13 -10 26
-11 37 -5 24 14 60 -7 52 -31 -3 -10 -1 -21 4 -24 12 -8 45 39 37 53 -3 5 3 7
14 4 16 -4 20 0 20 19 0 13 6 33 14 44 14 18 15 18 21 1 4 -10 16 -22 27 -28
15 -8 23 -7 34 8 11 12 17 14 20 6 3 -7 20 2 43 25 37 36 38 38 33 96 -3 37
-1 61 7 65 14 9 -12 90 -39 119 -11 12 -20 26 -20 32 0 6 -10 30 -22 53 -12
23 -22 44 -23 47 0 5 -14 23 -43 55 -11 13 -11 16 5 22 18 6 63 51 63 63 0 3
-6 15 -14 25 -14 19 -15 19 -69 -9 -51 -25 -57 -26 -84 -13 -15 8 -44 12 -63
10 -28 -4 -41 1 -63 21 -62 57 -133 71 -217 41 -23 -8 -55 -15 -69 -15 -15 0
-31 -4 -37 -9 -10 -11 -38 6 -47 29 -3 8 -6 1 -6 -16 -1 -38 33 -73 81 -80 29
-5 38 -2 51 16 11 16 21 20 37 15 12 -4 27 -1 36 6 12 10 24 7 67 -16 70 -39
137 -95 137 -117 0 -10 -4 -18 -10 -18 -5 0 -10 -6 -10 -14 0 -8 -7 -17 -16
-20 -8 -3 -13 -2 -10 3 3 5 -1 25 -9 44 -11 28 -19 34 -35 30 -13 -4 -20 0
-20 10 0 19 -30 31 -44 17 -15 -15 -36 -12 -36 4 0 12 -6 12 -35 3 -35 -10
-49 -37 -20 -37 8 0 15 -4 15 -10 0 -14 -13 -12 -36 5 -28 21 -34 18 -34 -15
0 -23 -4 -30 -20 -30 -11 0 -20 -7 -20 -15 0 -18 11 -19 29 -2 12 10 13 8 6
-8 -18 -48 -17 -52 11 -59 15 -4 34 -15 41 -24 11 -15 12 -13 13 14 0 38 26
66 40 43 7 -9 5 -15 -5 -17 -20 -5 -19 -41 1 -49 9 -3 20 0 25 8 8 12 10 12
19 -1 5 -8 24 -16 42 -17 112 -7 155 -11 168 -14 10 -3 16 5 18 24 3 24 7 27
25 21 50 -15 67 -24 67 -34 0 -5 8 -10 18 -10 40 0 73 -76 58 -135 -6 -22 -9
-25 -21 -15 -8 7 -15 17 -15 23 0 6 -12 24 -27 39 -28 29 -70 37 -91 16 -9 -9
-16 -7 -31 6 -14 12 -28 16 -45 12 -14 -3 -28 -2 -31 4 -3 5 -34 9 -68 8 -34
-1 -87 1 -117 5 -36 4 -74 1 -107 -7 -29 -8 -54 -11 -57 -9 -3 3 -12 0 -21 -7
-9 -7 -18 -10 -21 -7 -3 3 -38 -4 -77 -14 -39 -11 -82 -18 -95 -14 -17 4 -28
-1 -42 -17 -14 -16 -19 -19 -20 -8 0 18 68 80 89 80 18 1 51 23 51 34 0 13 28
36 44 36 8 0 26 5 40 11 20 10 30 9 50 -5 14 -9 28 -16 31 -16 6 0 2 32 -7 46
-4 6 -6 21 -3 33 11 58 -21 66 -60 16 -19 -26 -32 -34 -45 -30 -10 3 -21 1
-25 -5 -4 -6 -13 -9 -20 -6 -8 3 -16 -5 -20 -21 -6 -24 -7 -24 -19 -8 -17 24
-46 13 -39 -14 3 -13 1 -21 -7 -21 -7 0 -19 -8 -26 -17 -12 -17 -13 -17 -14
-1 0 9 7 21 16 26 18 10 11 32 -9 32 -22 0 -89 -89 -82 -108 6 -15 8 -15 25 6
35 42 43 18 9 -28 -12 -15 -22 -41 -22 -57 0 -15 -2 -22 -4 -15 -8 22 -33 13
-33 -13 0 -16 -6 -25 -15 -25 -9 0 -24 -19 -34 -43 l-19 -42 -11 30 c-10 23
-14 26 -21 15 -8 -12 -10 -9 -10 10 0 14 -7 34 -15 44 -13 17 -15 17 -21 3 -8
-22 -22 -22 -20 0 1 19 -26 28 -51 19 -12 -5 -13 -10 -5 -18 9 -9 9 -15 0 -25
-16 -20 -2 -28 27 -15 14 6 25 8 25 3 0 -5 -7 -11 -15 -15 -19 -7 -20 -32 -1
-43 19 -11 29 -50 16 -58 -7 -4 -17 -2 -23 4 -14 14 -47 14 -47 0 0 -6 9 -13
20 -16 11 -3 20 -9 20 -14 0 -5 -7 -6 -15 -3 -10 4 -15 0 -15 -15 0 -12 7 -24
15 -27 8 -4 15 -10 15 -16 0 -5 -5 -6 -11 -3 -6 4 -13 -3 -16 -14 -8 -31 -28
-20 -28 15 -1 35 -28 40 -33 7 -5 -34 -19 -28 -26 12 -4 19 -16 39 -26 45 -23
12 -27 35 -5 26 9 -3 15 0 15 9 0 7 -9 17 -20 20 -11 3 -20 11 -20 16 0 6 -3
8 -7 6 -9 -5 -15 86 -17 221 -1 45 -3 82 -6 82 -4 0 -6 17 -7 38 0 20 -3 78
-6 127 -3 50 -2 124 4 165 21 159 31 216 44 245 8 17 16 64 19 105 3 41 10 76
16 78 5 2 10 11 10 19 0 11 -3 13 -12 5 -7 -5 -25 -9 -40 -7 -30 3 -35 -4 -17
-22 13 -13 4 -33 -16 -33 -15 0 -20 -13 -31 -75 -4 -22 -15 -62 -25 -88 -11
-26 -19 -61 -19 -77 0 -15 -9 -50 -20 -76 -11 -26 -19 -49 -16 -51 2 -3 0 -19
-6 -36 -5 -18 -10 -40 -10 -51 1 -10 -7 -30 -16 -44 -16 -24 -16 -26 0 -20 14
6 15 3 6 -25 -5 -18 -14 -48 -20 -67 -15 -52 -40 -90 -59 -90 -16 0 -34 -38
-23 -49 3 -3 7 4 10 16 4 13 11 19 19 16 17 -6 8 -32 -18 -55 -25 -22 -47 -23
-47 -3 0 8 -2 15 -4 15 -2 0 -11 3 -20 6 -11 4 -16 1 -16 -10 0 -9 -4 -16 -10
-16 -5 0 -10 5 -10 10 0 6 -6 10 -14 10 -18 0 -30 33 -21 60 5 15 0 21 -19 26
-20 5 -26 13 -26 33 -1 38 -22 61 -49 54 -20 -5 -21 -3 -15 23 4 16 10 33 14
37 4 5 4 23 0 40 -13 51 -19 121 -10 132 4 6 12 35 18 65 6 30 19 84 28 120 9
36 18 99 19 140 4 71 14 237 19 290 4 43 17 92 43 158 27 67 46 81 134 101 40
9 149 -6 149 -20 0 -5 6 -9 13 -9 7 0 32 -9 55 -20 33 -16 47 -18 63 -10 23
13 79 -6 79 -27 0 -7 4 -13 9 -13 10 0 21 34 21 66 0 13 8 24 20 27 13 3 20
14 20 30 0 34 26 94 47 105 25 14 174 3 303 -23z m-437 -42 c-7 -2 -21 -2 -30
0 -10 3 -4 5 12 5 17 0 24 -2 18 -5z m-327 -30 c-10 -10 -19 5 -10 18 6 11 8
11 12 0 2 -7 1 -15 -2 -18z m1712 -227 c2 -10 -2 -22 -10 -27 -7 -5 -13 -19
-13 -31 0 -15 -5 -22 -15 -19 -8 2 -34 6 -58 9 -23 2 -45 9 -48 13 -3 5 0 9 5
9 6 0 11 9 11 19 0 30 39 52 85 49 30 -2 41 -8 43 -22z m580 -12 c12 -4 22
-13 22 -20 0 -19 -10 -17 -40 6 -26 20 -21 24 18 14z m-699 -95 c17 -6 31 -14
31 -19 0 -12 -48 1 -61 16 -14 17 -11 17 30 3z m81 -26 c0 -11 -3 -14 -8 -7
-4 6 -14 14 -22 17 -10 4 -8 6 8 6 15 1 22 -5 22 -16z m-450 -637 c0 -11 -19
-15 -25 -6 -3 5 1 10 9 10 9 0 16 -2 16 -4z m190 -76 c0 -5 -5 -10 -11 -10 -5
0 -7 5 -4 10 3 6 8 10 11 10 2 0 4 -4 4 -10z m-1650 -120 c0 -5 -5 -10 -11
-10 -5 0 -7 5 -4 10 3 6 8 10 11 10 2 0 4 -4 4 -10z m1025 -129 c-9 -16 -25
-3 -18 15 4 10 9 12 15 6 6 -6 7 -15 3 -21z m215 -101 c0 -14 37 -13 42 2 3 9
23 8 82 -1 43 -7 99 -10 123 -6 40 6 45 4 50 -14 6 -25 18 -27 27 -6 9 23 25
18 37 -12 7 -16 13 -23 16 -15 6 14 29 16 38 2 3 -5 -2 -26 -10 -47 l-16 -38
-17 22 c-16 20 -23 22 -90 17 -56 -4 -79 -2 -97 10 -15 10 -26 12 -30 6 -4 -6
-22 -8 -43 -4 -61 10 -70 14 -75 34 -5 20 -27 28 -27 10 0 -17 -36 -11 -61 9
l-24 20 25 10 c33 13 50 13 50 1z m-65 -90 c14 -16 15 -20 4 -20 -16 0 -39 19
-39 32 0 14 16 9 35 -12z m83 -19 c37 -19 238 -32 265 -16 13 7 20 6 27 -5 19
-28 7 -45 -30 -44 -95 3 -227 18 -254 29 -17 6 -40 15 -51 19 -16 6 -17 9 -5
16 19 12 27 12 48 1z m-308 -147 c0 -13 -4 -24 -9 -24 -11 0 -22 40 -15 52 9
15 24 -2 24 -28z m-270 -35 c0 -14 -17 -10 -23 5 -4 10 -1 13 9 9 7 -3 14 -9
14 -14z m25 -37 c0 -18 -20 -15 -23 4 -3 10 1 15 10 12 7 -3 13 -10 13 -16z
m-75 -12 c0 -5 -8 -10 -17 -10 -15 0 -16 2 -3 10 19 12 20 12 20 0z m120 -41
c0 -5 -4 -9 -10 -9 -5 0 -10 7 -10 16 0 8 5 12 10 9 6 -3 10 -10 10 -16z m215
-319 c3 -5 1 -10 -4 -10 -6 0 -11 5 -11 10 0 6 2 10 4 10 3 0 8 -4 11 -10z
m-85 -21 c0 -5 -4 -9 -10 -9 -5 0 -10 7 -10 16 0 8 5 12 10 9 6 -3 10 -10 10
-16z"/>
<path d="M2130 2939 c0 -5 5 -7 10 -4 6 3 10 8 10 11 0 2 -4 4 -10 4 -5 0 -10
-5 -10 -11z"/>
<path d="M2440 2775 c-25 -30 -52 -171 -38 -201 11 -24 61 -29 138 -12 50 10
116 -2 177 -33 20 -10 53 -19 73 -20 86 -2 114 -29 50 -48 -42 -12 -47 -20
-29 -38 9 -9 7 -10 -10 -6 -24 6 -28 -9 -6 -27 8 -7 15 -9 15 -4 0 4 5 3 12
-4 7 -7 22 -12 35 -12 12 0 26 -8 31 -17 9 -16 11 -16 27 0 9 9 21 17 27 17
17 0 57 48 63 75 3 14 7 37 11 51 6 31 42 64 61 57 8 -3 13 2 13 12 0 11 5 15
14 12 9 -4 12 0 9 12 -3 12 2 17 18 18 26 2 39 14 21 20 -7 3 -18 10 -25 17
-26 25 -83 44 -127 42 -25 -2 -51 1 -57 7 -21 16 -137 20 -225 8 -90 -13 -242
-71 -270 -102 -24 -28 -29 -24 -27 26 3 51 6 54 19 23 6 -17 9 -19 9 -6 1 12
7 16 19 12 14 -5 14 -4 2 4 -12 9 -12 13 3 29 10 12 14 27 10 41 -4 18 -1 22
16 22 14 0 20 4 15 11 -3 6 0 15 7 20 10 6 6 9 -13 9 -16 0 -27 -3 -26 -7 3
-14 -14 -63 -22 -63 -7 0 -20 24 -20 36 0 2 7 4 15 4 8 0 15 7 15 15 0 19 -14
19 -30 0z m313 -173 c-3 -26 -7 -49 -9 -51 -6 -7 -65 18 -91 39 l-25 20 52 24
c69 32 81 27 73 -32z m47 18 c0 -5 -7 -10 -15 -10 -8 0 -15 5 -15 10 0 6 7 10
15 10 8 0 15 -4 15 -10z m80 -14 c0 -3 -4 -8 -10 -11 -5 -3 -10 -1 -10 4 0 6
5 11 10 11 6 0 10 -2 10 -4z"/>
<path d="M3130 2579 c0 -5 5 -7 10 -4 6 3 10 8 10 11 0 2 -4 4 -10 4 -5 0 -10
-5 -10 -11z"/>
<path d="M3020 2470 c0 -5 7 -10 16 -10 8 0 12 5 9 10 -3 6 -10 10 -16 10 -5
0 -9 -4 -9 -10z"/>
<path d="M2180 2290 c0 -5 5 -10 10 -10 6 0 10 5 10 10 0 6 -4 10 -10 10 -5 0
-10 -4 -10 -10z"/>
<path d="M3052 2228 c-19 -19 -14 -30 8 -18 11 6 20 15 20 20 0 14 -14 12 -28
-2z"/>
<path d="M3521 2204 c0 -11 3 -14 6 -6 3 7 2 16 -1 19 -3 4 -6 -2 -5 -13z"/>
<path d="M2916 1883 c-6 -14 -5 -15 5 -6 7 7 10 15 7 18 -3 3 -9 -2 -12 -12z"/>
<path d="M3590 1891 c0 -5 9 -19 20 -32 22 -28 28 -6 6 24 -14 18 -26 22 -26
8z"/>
<path d="M3620 1691 c-13 -26 -13 -44 2 -39 14 5 30 58 17 58 -4 0 -13 -9 -19
-19z"/>
<path d="M2947 1603 c-14 -13 -6 -33 12 -33 16 0 31 18 31 36 0 7 -36 5 -43
-3z"/>
<path d="M3271 1594 c0 -11 3 -14 6 -6 3 7 2 16 -1 19 -3 4 -6 -2 -5 -13z"/>
<path d="M2805 1520 c-3 -5 -1 -10 4 -10 6 0 11 5 11 10 0 6 -2 10 -4 10 -3 0
-8 -4 -11 -10z"/>
<path d="M2720 1500 c0 -5 5 -10 11 -10 5 0 7 5 4 10 -3 6 -8 10 -11 10 -2 0
-4 -4 -4 -10z"/>
<path d="M2350 1409 c0 -5 5 -7 10 -4 6 3 10 8 10 11 0 2 -4 4 -10 4 -5 0 -10
-5 -10 -11z"/>
<path d="M2353 1133 c9 -2 17 -9 17 -14 0 -5 7 -9 15 -9 9 0 12 6 9 15 -4 9
-17 15 -33 14 -17 -1 -20 -3 -8 -6z"/>
<path d="M3150 966 c0 -17 14 -29 23 -20 8 8 -3 34 -14 34 -5 0 -9 -6 -9 -14z"/>
<path d="M3310 965 c-7 -9 -8 -15 -2 -15 5 0 12 7 16 15 3 8 4 15 2 15 -2 0
-9 -7 -16 -15z"/>
<path d="M3226 961 c-3 -5 0 -11 7 -13 17 -7 38 2 31 13 -7 12 -31 12 -38 0z"/>
<path d="M3175 920 c-10 -15 27 -70 47 -70 10 0 18 5 18 11 0 33 -52 80 -65
59z"/>
<path d="M3126 895 c4 -8 8 -15 10 -15 2 0 4 7 4 15 0 8 -4 15 -10 15 -5 0 -7
-7 -4 -15z"/>
<path d="M3250 892 c0 -12 19 -26 26 -19 2 2 -2 10 -11 17 -9 8 -15 8 -15 2z"/>
<path d="M2680 861 c-7 -15 -7 -21 0 -21 12 0 25 28 17 36 -3 3 -10 -4 -17
-15z"/>
<path d="M2640 746 c0 -9 7 -16 16 -16 17 0 14 22 -4 28 -7 2 -12 -3 -12 -12z"/>
<path d="M3136 205 c4 -8 7 -15 9 -15 2 0 5 7 9 15 3 9 0 15 -9 15 -9 0 -12
-6 -9 -15z"/>
<path d="M1260 10 c-9 -6 -10 -10 -3 -10 6 0 15 5 18 10 8 12 4 12 -15 0z"/>
</g>
</svg>
